<svg width="34" height="34" viewBox="0 0 34 34" fill="none" xmlns="http://www.w3.org/2000/svg">
<path d="M22.6664 12.7502V8.50016C22.6664 5.37055 20.1293 2.8335 16.9997 2.8335C13.8701 2.8335 11.333 5.37055 11.333 8.50016V12.7502M5.08838 14.6654L4.23838 23.7321C3.9967 26.31 3.87586 27.599 4.30361 28.5946C4.67938 29.4691 5.33788 30.1923 6.17357 30.648C7.12487 31.1668 8.41948 31.1668 11.0087 31.1668H22.9907C25.5799 31.1668 26.8745 31.1668 27.8258 30.648C28.6615 30.1923 29.32 29.4691 29.6958 28.5946C30.1236 27.599 30.0027 26.31 29.761 23.7321L28.911 14.6654C28.707 12.4886 28.6049 11.4001 28.1154 10.5772C27.6842 9.85249 27.0472 9.2724 26.2854 8.91078C25.4204 8.50017 24.3271 8.50016 22.1407 8.50016L11.8587 8.50016C9.67227 8.50016 8.57906 8.50016 7.71405 8.91077C6.95223 9.2724 6.31522 9.85249 5.88406 10.5772C5.3945 11.4001 5.29246 12.4886 5.08838 14.6654Z" stroke="black" stroke-width="2" stroke-linecap="round" stroke-linejoin="round"/>
</svg>
