<svg width="34" height="34" viewBox="0 0 34 34" fill="none" xmlns="http://www.w3.org/2000/svg">
<path d="M22.6667 11.3335V6.37605C22.6667 5.19775 22.6667 4.6086 22.4185 4.24654C22.2016 3.93021 21.8657 3.71533 21.4877 3.65099C21.0549 3.57735 20.52 3.82423 19.4501 4.31801L6.8836 10.1179C5.92947 10.5583 5.4524 10.7785 5.10298 11.12C4.79408 11.4219 4.55829 11.7904 4.41363 12.1974C4.25 12.6577 4.25 13.1832 4.25 14.234V21.2501M23.375 20.5418H23.3892M4.25 15.8668L4.25 25.2168C4.25 26.8036 4.25 27.597 4.55881 28.2031C4.83046 28.7362 5.2639 29.1697 5.79703 29.4413C6.40311 29.7501 7.19652 29.7501 8.78333 29.7501H25.2167C26.8035 29.7501 27.5969 29.7501 28.203 29.4413C28.7361 29.1697 29.1695 28.7362 29.4412 28.2031C29.75 27.597 29.75 26.8036 29.75 25.2168V15.8668C29.75 14.28 29.75 13.4866 29.4412 12.8805C29.1695 12.3474 28.7361 11.9139 28.203 11.6423C27.5969 11.3335 26.8035 11.3335 25.2167 11.3335L8.78333 11.3335C7.19652 11.3335 6.40311 11.3335 5.79703 11.6423C5.2639 11.9139 4.83046 12.3474 4.55882 12.8805C4.25 13.4866 4.25 14.28 4.25 15.8668ZM24.0833 20.5418C24.0833 20.933 23.7662 21.2501 23.375 21.2501C22.9838 21.2501 22.6667 20.933 22.6667 20.5418C22.6667 20.1506 22.9838 19.8335 23.375 19.8335C23.7662 19.8335 24.0833 20.1506 24.0833 20.5418Z" stroke="black" stroke-width="2" stroke-linecap="round" stroke-linejoin="round"/>
</svg>
