<svg width="558" height="100" viewBox="0 0 558 100" fill="none" xmlns="http://www.w3.org/2000/svg">
<rect width="100" height="100" rx="16" fill="white"/>
<path d="M79.014 77.5481C75.8637 79.6903 71.8944 81.36 67.106 82.5571C62.3805 83.7542 57.3401 84.3527 51.9846 84.3527C45.306 84.3527 39.6355 83.5337 34.9731 81.8955C30.3107 80.1944 26.7824 77.8632 24.3882 74.9019C21.994 71.8776 20.7969 68.4438 20.7969 64.6005C20.7969 61.0722 21.7735 57.9534 23.7266 55.2442C25.6798 52.5349 28.3575 50.5188 31.7598 49.1956C29.1766 47.8095 27.1604 45.9194 25.7113 43.5251C24.3252 41.1309 23.6321 38.4532 23.6321 35.4919C23.6321 31.9006 24.7347 28.6243 26.9399 25.6631C29.1451 22.7018 32.4844 20.3391 36.9578 18.5749C41.4312 16.8108 46.9127 15.9287 53.4022 15.9287C57.6866 15.9287 61.8765 16.3697 65.9719 17.2518C70.0672 18.0709 73.627 19.205 76.6513 20.6541L72.3984 32.3732C66.6019 29.6639 60.4589 28.3093 53.9693 28.3093C49.0549 28.3093 45.3375 29.0654 42.8173 30.5775C40.3601 32.0266 39.1315 34.0113 39.1315 36.5315C39.1315 38.8627 39.9506 40.6584 41.5887 41.9185C43.2899 43.1156 45.8416 43.7142 49.2439 43.7142H67.295V55.8112H48.2988C44.4555 55.8112 41.4942 56.4728 39.415 57.7959C37.3358 59.119 36.2962 61.0407 36.2962 63.5609C36.2962 66.2071 37.6194 68.2863 40.2656 69.7985C42.9748 71.2476 47.1017 71.9722 52.6462 71.9722C56.5525 71.9722 60.4589 71.4681 64.3652 70.46C68.2716 69.3889 71.5794 67.9083 74.2886 66.0181L79.014 77.5481Z" fill="url(#paint0_linear_30_2019)"/>
<path d="M143.696 37.824H165.968V44.672H143.696V37.824ZM144.336 57.024H169.616V64H136.016V19.2H168.72V26.176H144.336V57.024ZM172.951 64L191.831 38.016V44.288L173.847 19.2H183.255L196.631 37.76L192.791 37.824L206.039 19.2H215.063L197.207 43.84V37.824L216.215 64H206.615L192.535 44.288H196.311L182.423 64H172.951ZM221.266 64V19.2H239.698C243.666 19.2 247.058 19.84 249.874 21.12C252.733 22.4 254.93 24.2347 256.466 26.624C258.002 29.0133 258.77 31.8507 258.77 35.136C258.77 38.4213 258.002 41.2587 256.466 43.648C254.93 46.0373 252.733 47.872 249.874 49.152C247.058 50.432 243.666 51.072 239.698 51.072H225.874L229.586 47.168V64H221.266ZM229.586 48.064L225.874 44.032H239.314C242.983 44.032 245.735 43.264 247.57 41.728C249.447 40.1493 250.386 37.952 250.386 35.136C250.386 32.2773 249.447 30.08 247.57 28.544C245.735 27.008 242.983 26.24 239.314 26.24H225.874L229.586 22.144V48.064ZM274.759 37.824H297.031V44.672H274.759V37.824ZM275.399 57.024H300.679V64H267.079V19.2H299.783V26.176H275.399V57.024ZM309.954 64V19.2H328.386C332.354 19.2 335.746 19.84 338.562 21.12C341.42 22.4 343.618 24.2347 345.154 26.624C346.69 29.0133 347.458 31.8507 347.458 35.136C347.458 38.4213 346.69 41.2587 345.154 43.648C343.618 45.9947 341.42 47.808 338.562 49.088C335.746 50.3253 332.354 50.944 328.386 50.944H314.562L318.274 47.168V64H309.954ZM339.266 64L327.938 47.744H336.833L348.226 64H339.266ZM318.274 48.064L314.562 44.096H328.002C331.671 44.096 334.423 43.3067 336.257 41.728C338.135 40.1493 339.074 37.952 339.074 35.136C339.074 32.2773 338.135 30.08 336.257 28.544C334.423 27.008 331.671 26.24 328.002 26.24H314.562L318.274 22.144V48.064ZM365.229 64V26.24H350.381V19.2H388.397V26.24H373.549V64H365.229ZM443.817 19.2H452.137V64H443.817V19.2ZM420.649 64H412.329V19.2H420.649V64ZM444.457 44.8H419.945V37.696H444.457V44.8ZM483.405 64.64C477.261 64.64 472.44 62.912 468.941 59.456C465.485 56 463.757 51.008 463.757 44.48V19.2H472.077V44.16C472.077 48.768 473.058 52.1173 475.021 54.208C477.026 56.2987 479.842 57.344 483.469 57.344C487.096 57.344 489.89 56.2987 491.853 54.208C493.816 52.1173 494.797 48.768 494.797 44.16V19.2H502.989V44.48C502.989 51.008 501.24 56 497.741 59.456C494.285 62.912 489.506 64.64 483.405 64.64ZM514.641 64V19.2H535.633C541.009 19.2 545.105 20.2667 547.921 22.4C550.737 24.4907 552.145 27.3067 552.145 30.848C552.145 33.2373 551.59 35.2853 550.481 36.992C549.372 38.656 547.878 39.9573 546.001 40.896C544.166 41.792 542.161 42.24 539.985 42.24L541.137 39.936C543.654 39.936 545.916 40.4053 547.921 41.344C549.926 42.24 551.505 43.5627 552.657 45.312C553.852 47.0613 554.449 49.2373 554.449 51.84C554.449 55.68 552.977 58.6667 550.033 60.8C547.089 62.9333 542.716 64 536.913 64H514.641ZM522.961 57.472H536.401C539.516 57.472 541.905 56.96 543.569 55.936C545.233 54.912 546.065 53.2693 546.065 51.008C546.065 48.7893 545.233 47.168 543.569 46.144C541.905 45.0773 539.516 44.544 536.401 44.544H522.321V38.08H534.737C537.638 38.08 539.857 37.568 541.393 36.544C542.972 35.52 543.761 33.984 543.761 31.936C543.761 29.8453 542.972 28.288 541.393 27.264C539.857 26.24 537.638 25.728 534.737 25.728H522.961V57.472Z" fill="white"/>
<defs>
<linearGradient id="paint0_linear_30_2019" x1="48.6292" y1="-17.0524" x2="48.6292" y2="114.913" gradientUnits="userSpaceOnUse">
<stop stop-color="#282828" stop-opacity="0.4"/>
<stop offset="0.5" stop-color="#282828"/>
<stop offset="1" stop-color="#282828" stop-opacity="0.4"/>
</linearGradient>
</defs>
</svg>
