<svg width="50" height="50" viewBox="0 0 50 50" fill="none" xmlns="http://www.w3.org/2000/svg">
<rect width="50" height="50" rx="10.6195" fill="#2C2C2C"/>
<path d="M39.507 38.7741C37.9319 39.8452 35.9472 40.68 33.553 41.2785C31.1903 41.8771 28.6701 42.1764 25.9923 42.1764C22.653 42.1764 19.8178 41.7668 17.4866 40.9478C15.1554 40.0972 13.3912 38.9316 12.1941 37.451C10.997 35.9388 10.3984 34.2219 10.3984 32.3003C10.3984 30.5361 10.8867 28.9767 11.8633 27.6221C12.8399 26.2675 14.1788 25.2594 15.8799 24.5978C14.5883 23.9048 13.5802 22.9597 12.8557 21.7626C12.1626 20.5655 11.8161 19.2266 11.8161 17.746C11.8161 15.9503 12.3674 14.3122 13.47 12.8315C14.5726 11.3509 16.2422 10.1695 18.4789 9.28747C20.7156 8.40539 23.4563 7.96436 26.7011 7.96436C28.8433 7.96436 30.9383 8.18487 32.9859 8.62591C35.0336 9.03545 36.8135 9.6025 38.3257 10.3271L36.1992 16.1866C33.301 14.832 30.2294 14.1547 26.9847 14.1547C24.5274 14.1547 22.6688 14.5327 21.4087 15.2887C20.1801 16.0133 19.5657 17.0057 19.5657 18.2658C19.5657 19.4314 19.9753 20.3292 20.7944 20.9593C21.6449 21.5578 22.9208 21.8571 24.6219 21.8571H33.6475V27.9056H24.1494C22.2277 27.9056 20.7471 28.2364 19.7075 28.898C18.6679 29.5595 18.1481 30.5203 18.1481 31.7805C18.1481 33.1036 18.8097 34.1432 20.1328 34.8992C21.4874 35.6238 23.5508 35.9861 26.3231 35.9861C28.2763 35.9861 30.2294 35.7341 32.1826 35.23C34.1358 34.6945 35.7897 33.9541 37.1443 33.0091L39.507 38.7741Z" fill="url(#paint0_linear_1_969)"/>
<defs>
<linearGradient id="paint0_linear_1_969" x1="24.3146" y1="-8.52621" x2="24.3146" y2="57.4567" gradientUnits="userSpaceOnUse">
<stop stop-color="white" stop-opacity="0.4"/>
<stop offset="0.5" stop-color="white"/>
<stop offset="1" stop-color="white" stop-opacity="0.4"/>
</linearGradient>
</defs>
</svg>
