<svg width="78" height="78" viewBox="0 0 78 78" fill="none" xmlns="http://www.w3.org/2000/svg">
<g filter="url(#filter0_d_1_903)">
<circle cx="37" cy="37" r="24" transform="rotate(-180 37 37)" fill="white"/>
</g>
<path d="M50.0607 38.0607C50.6464 37.4749 50.6464 36.5251 50.0607 35.9393L40.5147 26.3934C39.9289 25.8076 38.9792 25.8076 38.3934 26.3934C37.8076 26.9792 37.8076 27.9289 38.3934 28.5147L46.8787 37L38.3934 45.4853C37.8076 46.0711 37.8076 47.0208 38.3934 47.6066C38.9792 48.1924 39.9289 48.1924 40.5147 47.6066L50.0607 38.0607ZM24 38.5L49 38.5L49 35.5L24 35.5L24 38.5Z" fill="#0072EE"/>
<defs>
<filter id="filter0_d_1_903" x="0" y="0" width="78" height="78" filterUnits="userSpaceOnUse" color-interpolation-filters="sRGB">
<feFlood flood-opacity="0" result="BackgroundImageFix"/>
<feColorMatrix in="SourceAlpha" type="matrix" values="0 0 0 0 0 0 0 0 0 0 0 0 0 0 0 0 0 0 127 0" result="hardAlpha"/>
<feOffset dx="2" dy="2"/>
<feGaussianBlur stdDeviation="7.5"/>
<feComposite in2="hardAlpha" operator="out"/>
<feColorMatrix type="matrix" values="0 0 0 0 0 0 0 0 0 0 0 0 0 0 0 0 0 0 0.15 0"/>
<feBlend mode="normal" in2="BackgroundImageFix" result="effect1_dropShadow_1_903"/>
<feBlend mode="normal" in="SourceGraphic" in2="effect1_dropShadow_1_903" result="shape"/>
</filter>
</defs>
</svg>
