<svg width="120" height="120" viewBox="0 0 120 120" fill="none" xmlns="http://www.w3.org/2000/svg">
<rect width="120" height="120" rx="21.9048" fill="white"/>
<path d="M94.8166 93.0586C91.0363 95.6292 86.2731 97.6328 80.527 99.0693C74.8565 100.506 68.8079 101.224 62.3814 101.224C54.3671 101.224 47.5625 100.241 41.9676 98.2754C36.3727 96.234 32.1387 93.4366 29.2656 89.8831C26.3926 86.254 24.9561 82.1334 24.9561 77.5214C24.9561 73.2874 26.128 69.5449 28.4718 66.2938C30.8156 63.0427 34.0289 60.6233 38.1116 59.0356C35.0117 57.3722 32.5923 55.104 30.8534 52.231C29.19 49.3579 28.3584 46.1446 28.3584 42.5911C28.3584 38.2815 29.6815 34.35 32.3277 30.7965C34.9739 27.243 38.9811 24.4077 44.3492 22.2907C49.7172 20.1737 56.295 19.1152 64.0825 19.1152C69.2238 19.1152 74.2516 19.6445 79.166 20.703C84.0805 21.6859 88.3523 23.0468 91.9814 24.7857L86.8779 38.8486C79.9221 35.5975 72.5505 33.9719 64.763 33.9719C58.8657 33.9719 54.4049 34.8792 51.3806 36.6938C48.4319 38.4327 46.9576 40.8143 46.9576 43.8386C46.9576 46.6361 47.9405 48.7909 49.9063 50.303C51.9476 51.7395 55.0097 52.4578 59.0925 52.4578H80.7538V66.9743H57.9584C53.3464 66.9743 49.7928 67.7681 47.2978 69.3559C44.8028 70.9436 43.5553 73.2496 43.5553 76.2739C43.5553 79.4494 45.143 81.9444 48.3185 83.7589C51.5696 85.4979 56.5218 86.3674 63.1752 86.3674C67.8628 86.3674 72.5505 85.7625 77.2381 84.5528C81.9257 83.2675 85.895 81.4907 89.1461 79.2225L94.8166 93.0586Z" fill="url(#paint0_linear_1_2295)"/>
<defs>
<linearGradient id="paint0_linear_1_2295" x1="58.3549" y1="-20.4621" x2="58.3549" y2="137.897" gradientUnits="userSpaceOnUse">
<stop stop-color="#282828" stop-opacity="0.4"/>
<stop offset="0.5" stop-color="#282828"/>
<stop offset="1" stop-color="#282828" stop-opacity="0.4"/>
</linearGradient>
</defs>
</svg>
